<?xml version="1.0" encoding="UTF-8"?>
<!-- Option D Final: Irregular mesh with white & orange accents (light theme) -->
<svg xmlns="http://www.w3.org/2000/svg" viewBox="0 0 100 100" width="100" height="100">
  <!-- Subtle grid background -->
  <g stroke="#1E3A5F" stroke-width="0.5" opacity="0.1">
    <line x1="0" y1="25" x2="100" y2="25"/>
    <line x1="0" y1="50" x2="100" y2="50"/>
    <line x1="0" y1="75" x2="100" y2="75"/>
    <line x1="25" y1="0" x2="25" y2="100"/>
    <line x1="50" y1="0" x2="50" y2="100"/>
    <line x1="75" y1="0" x2="75" y2="100"/>
  </g>

  <!-- Irregular mesh connections -->
  <g stroke="#0EA5E9" stroke-width="1.5" fill="none">
    <!-- Primary connections -->
    <line x1="22" y1="20" x2="50" y2="32"/>
    <line x1="50" y1="32" x2="78" y2="18"/>
    <line x1="22" y1="20" x2="15" y2="52"/>
    <line x1="78" y1="18" x2="85" y2="45"/>
    <line x1="15" y1="52" x2="35" y2="55"/>
    <line x1="35" y1="55" x2="50" y2="50"/>
    <line x1="50" y1="50" x2="68" y2="48"/>
    <line x1="68" y1="48" x2="85" y2="45"/>
    <line x1="15" y1="52" x2="28" y2="80"/>
    <line x1="35" y1="55" x2="50" y2="78"/>
    <line x1="50" y1="50" x2="50" y2="78"/>
    <line x1="68" y1="48" x2="72" y2="75"/>
    <line x1="85" y1="45" x2="72" y2="75"/>
    <line x1="28" y1="80" x2="50" y2="78"/>
    <line x1="50" y1="78" x2="72" y2="75"/>

    <!-- Cross mesh (dashed) -->
    <line x1="22" y1="20" x2="35" y2="55" stroke-dasharray="3,2" opacity="0.6"/>
    <line x1="78" y1="18" x2="68" y2="48" stroke-dasharray="3,2" opacity="0.6"/>
    <line x1="50" y1="32" x2="50" y2="50" stroke-dasharray="3,2" opacity="0.6"/>
  </g>

  <!-- Orange accent connections -->
  <g stroke="#F97316" stroke-width="2" fill="none" opacity="0.9">
    <line x1="35" y1="55" x2="68" y2="48"/>
    <line x1="50" y1="32" x2="35" y2="55" stroke-dasharray="4,3"/>
  </g>

  <!-- Primary nodes -->
  <g stroke="#0EA5E9" stroke-width="2" fill="#0C1929">
    <circle cx="22" cy="20" r="5"/>
    <circle cx="78" cy="18" r="5"/>
    <circle cx="15" cy="52" r="4"/>
    <circle cx="85" cy="45" r="4"/>
    <circle cx="28" cy="80" r="5"/>
    <circle cx="72" cy="75" r="5"/>
  </g>

  <!-- Hub nodes - white fill -->
  <g stroke="#0EA5E9" stroke-width="2" fill="white">
    <circle cx="50" cy="32" r="5"/>
    <circle cx="50" cy="78" r="5"/>
  </g>

  <!-- Central hub -->
  <g>
    <circle cx="50" cy="50" r="8" stroke="#0EA5E9" stroke-width="2" fill="#0C1929"/>
    <circle cx="50" cy="50" r="4" fill="#0EA5E9"/>
  </g>

  <!-- Secondary nodes with orange centers -->
  <g stroke="#0EA5E9" stroke-width="1.5" fill="#0C1929">
    <circle cx="35" cy="55" r="4"/>
    <circle cx="68" cy="48" r="4"/>
  </g>
  <g fill="#F97316">
    <circle cx="35" cy="55" r="2"/>
    <circle cx="68" cy="48" r="2"/>
  </g>
</svg>
